<mxfile host="app.diagrams.net" modified="2023-12-16T17:06:17.525Z" agent="Mozilla/5.0 (Windows NT 10.0; Win64; x64) AppleWebKit/537.36 (KHTML, like Gecko) Chrome/120.0.0.0 Safari/537.36 Edg/120.0.0.0" etag="4igWMlMCbHcJz4iCJhUH" version="22.1.11" type="github">
  <diagram name="Page-1" id="XOHVe-xvOEprRkgfdkk-">
    <mxGraphModel dx="872" dy="447" grid="1" gridSize="10" guides="1" tooltips="1" connect="1" arrows="1" fold="1" page="1" pageScale="1" pageWidth="850" pageHeight="1100" math="0" shadow="0">
      <root>
        <mxCell id="0" />
        <mxCell id="1" parent="0" />
        <mxCell id="FaiAq5r8sAQfN_tiHuSA-1" value="" style="ellipse;html=1;shape=startState;fillColor=#000000;strokeColor=#ff0000;" parent="1" vertex="1">
          <mxGeometry x="410" y="190" width="30" height="30" as="geometry" />
        </mxCell>
        <mxCell id="FaiAq5r8sAQfN_tiHuSA-2" value="" style="edgeStyle=orthogonalEdgeStyle;html=1;verticalAlign=bottom;endArrow=open;endSize=8;strokeColor=#ff0000;rounded=0;" parent="1" source="FaiAq5r8sAQfN_tiHuSA-1" edge="1">
          <mxGeometry relative="1" as="geometry">
            <mxPoint x="425" y="280" as="targetPoint" />
          </mxGeometry>
        </mxCell>
        <mxCell id="FaiAq5r8sAQfN_tiHuSA-3" value="" style="edgeStyle=orthogonalEdgeStyle;rounded=0;orthogonalLoop=1;jettySize=auto;html=1;" parent="1" source="FaiAq5r8sAQfN_tiHuSA-4" target="FaiAq5r8sAQfN_tiHuSA-5" edge="1">
          <mxGeometry relative="1" as="geometry" />
        </mxCell>
        <mxCell id="FaiAq5r8sAQfN_tiHuSA-4" value="pilih menu" style="rounded=1;whiteSpace=wrap;html=1;arcSize=40;fontColor=#000000;fillColor=#ffffc0;strokeColor=#ff0000;" parent="1" vertex="1">
          <mxGeometry x="365" y="260" width="120" height="40" as="geometry" />
        </mxCell>
        <mxCell id="FaiAq5r8sAQfN_tiHuSA-5" value="" style="shape=line;html=1;strokeWidth=6;strokeColor=#ff0000;" parent="1" vertex="1">
          <mxGeometry x="325" y="345" width="200" height="10" as="geometry" />
        </mxCell>
        <mxCell id="FaiAq5r8sAQfN_tiHuSA-6" value="" style="endArrow=classic;html=1;rounded=0;fillColor=#f8cecc;strokeColor=#b85450;entryX=0.5;entryY=0;entryDx=0;entryDy=0;exitX=0;exitY=0.5;exitDx=0;exitDy=0;exitPerimeter=0;" parent="1" target="FaiAq5r8sAQfN_tiHuSA-7" edge="1" source="FaiAq5r8sAQfN_tiHuSA-5">
          <mxGeometry width="50" height="50" relative="1" as="geometry">
            <mxPoint x="365" y="355" as="sourcePoint" />
            <mxPoint x="320" y="450" as="targetPoint" />
          </mxGeometry>
        </mxCell>
        <mxCell id="FaiAq5r8sAQfN_tiHuSA-7" value="Edit Form" style="rounded=1;whiteSpace=wrap;html=1;arcSize=40;fontColor=#000000;fillColor=#ffffc0;strokeColor=#ff0000;" parent="1" vertex="1">
          <mxGeometry x="100" y="510" width="120" height="40" as="geometry" />
        </mxCell>
        <mxCell id="FaiAq5r8sAQfN_tiHuSA-8" value="" style="edgeStyle=orthogonalEdgeStyle;html=1;verticalAlign=bottom;endArrow=open;endSize=8;strokeColor=#ff0000;rounded=0;entryX=0.055;entryY=0.3;entryDx=0;entryDy=0;entryPerimeter=0;" parent="1" source="FaiAq5r8sAQfN_tiHuSA-7" target="FaiAq5r8sAQfN_tiHuSA-17" edge="1">
          <mxGeometry relative="1" as="geometry">
            <mxPoint x="310" y="700" as="targetPoint" />
            <Array as="points">
              <mxPoint x="160" y="660" />
              <mxPoint x="321" y="660" />
            </Array>
          </mxGeometry>
        </mxCell>
        <mxCell id="FaiAq5r8sAQfN_tiHuSA-9" value="" style="endArrow=classic;html=1;rounded=0;fillColor=#f8cecc;strokeColor=#b85450;entryX=0.5;entryY=0;entryDx=0;entryDy=0;exitX=0.395;exitY=0.9;exitDx=0;exitDy=0;exitPerimeter=0;" parent="1" source="FaiAq5r8sAQfN_tiHuSA-5" target="FaiAq5r8sAQfN_tiHuSA-10" edge="1">
          <mxGeometry width="50" height="50" relative="1" as="geometry">
            <mxPoint x="510" y="355" as="sourcePoint" />
            <mxPoint x="465" y="450" as="targetPoint" />
          </mxGeometry>
        </mxCell>
        <mxCell id="FaiAq5r8sAQfN_tiHuSA-10" value="Lihat data buyers" style="rounded=1;whiteSpace=wrap;html=1;arcSize=40;fontColor=#000000;fillColor=#ffffc0;strokeColor=#ff0000;" parent="1" vertex="1">
          <mxGeometry x="245" y="510" width="120" height="40" as="geometry" />
        </mxCell>
        <mxCell id="FaiAq5r8sAQfN_tiHuSA-11" value="" style="endArrow=classic;html=1;rounded=0;fillColor=#f8cecc;strokeColor=#b85450;entryX=0.5;entryY=0;entryDx=0;entryDy=0;exitX=0.57;exitY=1;exitDx=0;exitDy=0;exitPerimeter=0;" parent="1" source="FaiAq5r8sAQfN_tiHuSA-5" target="FaiAq5r8sAQfN_tiHuSA-13" edge="1">
          <mxGeometry width="50" height="50" relative="1" as="geometry">
            <mxPoint x="564" y="364" as="sourcePoint" />
            <mxPoint x="600" y="460" as="targetPoint" />
          </mxGeometry>
        </mxCell>
        <mxCell id="FaiAq5r8sAQfN_tiHuSA-12" value="" style="edgeStyle=orthogonalEdgeStyle;rounded=0;orthogonalLoop=1;jettySize=auto;html=1;fillColor=#f8cecc;strokeColor=#FF0000;endArrow=open;endFill=0;" parent="1" source="FaiAq5r8sAQfN_tiHuSA-13" target="FaiAq5r8sAQfN_tiHuSA-19" edge="1">
          <mxGeometry relative="1" as="geometry">
            <mxPoint x="450" y="680" as="targetPoint" />
          </mxGeometry>
        </mxCell>
        <mxCell id="FaiAq5r8sAQfN_tiHuSA-13" value="edit data norek" style="rounded=1;whiteSpace=wrap;html=1;arcSize=40;fontColor=#000000;fillColor=#ffffc0;strokeColor=#ff0000;" parent="1" vertex="1">
          <mxGeometry x="390" y="510" width="120" height="40" as="geometry" />
        </mxCell>
        <mxCell id="FaiAq5r8sAQfN_tiHuSA-17" value="" style="shape=line;html=1;strokeWidth=6;strokeColor=#ff0000;" parent="1" vertex="1">
          <mxGeometry x="310" y="690" width="200" height="10" as="geometry" />
        </mxCell>
        <mxCell id="FaiAq5r8sAQfN_tiHuSA-18" value="" style="edgeStyle=orthogonalEdgeStyle;html=1;verticalAlign=bottom;endArrow=none;endSize=8;strokeColor=#FF0000;rounded=0;entryX=0.5;entryY=1;entryDx=0;entryDy=0;endFill=0;startArrow=open;startFill=0;" parent="1" source="FaiAq5r8sAQfN_tiHuSA-17" target="FaiAq5r8sAQfN_tiHuSA-10" edge="1">
          <mxGeometry relative="1" as="geometry">
            <mxPoint x="410" y="770" as="targetPoint" />
          </mxGeometry>
        </mxCell>
        <mxCell id="FaiAq5r8sAQfN_tiHuSA-19" value="" style="shape=waypoint;sketch=0;size=6;pointerEvents=1;points=[];fillColor=#ffffc0;resizable=0;rotatable=0;perimeter=centerPerimeter;snapToPoint=1;strokeColor=#ff0000;fontColor=#000000;rounded=1;arcSize=40;" parent="1" vertex="1">
          <mxGeometry x="440" y="685" width="20" height="20" as="geometry" />
        </mxCell>
        <mxCell id="FaiAq5r8sAQfN_tiHuSA-21" value="" style="ellipse;html=1;shape=startState;fillColor=#000000;strokeColor=#ff0000;" parent="1" vertex="1">
          <mxGeometry x="400" y="780" width="30" height="30" as="geometry" />
        </mxCell>
        <mxCell id="FaiAq5r8sAQfN_tiHuSA-22" value="" style="edgeStyle=orthogonalEdgeStyle;html=1;verticalAlign=bottom;endArrow=none;endSize=8;strokeColor=#ff0000;rounded=0;entryX=0.525;entryY=0.9;entryDx=0;entryDy=0;entryPerimeter=0;startArrow=classic;startFill=0;endFill=0;" parent="1" source="FaiAq5r8sAQfN_tiHuSA-21" target="FaiAq5r8sAQfN_tiHuSA-17" edge="1">
          <mxGeometry relative="1" as="geometry">
            <mxPoint x="395" y="860" as="targetPoint" />
          </mxGeometry>
        </mxCell>
        <mxCell id="FaiAq5r8sAQfN_tiHuSA-23" value="" style="endArrow=classic;html=1;rounded=0;fillColor=#f8cecc;strokeColor=#b85450;entryX=0.5;entryY=0;entryDx=0;entryDy=0;exitX=1;exitY=0.5;exitDx=0;exitDy=0;exitPerimeter=0;" parent="1" source="FaiAq5r8sAQfN_tiHuSA-5" target="FaiAq5r8sAQfN_tiHuSA-25" edge="1">
          <mxGeometry width="50" height="50" relative="1" as="geometry">
            <mxPoint x="395" y="345" as="sourcePoint" />
            <mxPoint x="755" y="461" as="targetPoint" />
          </mxGeometry>
        </mxCell>
        <mxCell id="FaiAq5r8sAQfN_tiHuSA-24" value="" style="edgeStyle=orthogonalEdgeStyle;rounded=0;orthogonalLoop=1;jettySize=auto;html=1;fillColor=#f8cecc;strokeColor=#FF0000;entryX=0.8;entryY=0.2;entryDx=0;entryDy=0;entryPerimeter=0;endArrow=open;endFill=0;" parent="1" edge="1">
          <mxGeometry relative="1" as="geometry">
            <Array as="points">
              <mxPoint x="600" y="570" />
              <mxPoint x="490" y="570" />
            </Array>
            <mxPoint x="490" y="690" as="targetPoint" />
            <mxPoint x="600" y="530" as="sourcePoint" />
          </mxGeometry>
        </mxCell>
        <mxCell id="FaiAq5r8sAQfN_tiHuSA-25" value="lihat transaksi" style="rounded=1;whiteSpace=wrap;html=1;arcSize=40;fontColor=#000000;fillColor=#ffffc0;strokeColor=#ff0000;" parent="1" vertex="1">
          <mxGeometry x="545" y="510" width="120" height="40" as="geometry" />
        </mxCell>
      </root>
    </mxGraphModel>
  </diagram>
</mxfile>
